<svg width="128" height="31" viewBox="0 0 128 31" fill="none" xmlns="http://www.w3.org/2000/svg">
<path d="M40.4625 0H43.2024V23.1177C43.2057 23.4559 43.1422 23.7913 43.0158 24.1039C42.8895 24.4164 42.7028 24.6997 42.4669 24.9368C42.2417 25.1828 41.969 25.3782 41.666 25.5106C41.363 25.643 41.0364 25.7095 40.7069 25.7058H38.2091V24.2351C36.6912 25.172 34.9533 25.6703 33.1805 25.677C31.862 25.6967 30.5535 25.44 29.3358 24.9225C28.1181 24.405 27.017 23.6379 26.1005 22.6683C25.1668 21.717 24.4262 20.5863 23.9213 19.3412C23.4164 18.0962 23.1572 16.7613 23.1586 15.4134C23.1592 14.0683 23.4189 12.7365 23.923 11.4941C24.427 10.2518 25.1655 9.12309 26.0962 8.17265C27.0268 7.2222 28.1315 6.46859 29.3471 5.95487C30.5626 5.44115 31.8652 5.17739 33.1805 5.17865C34.9481 5.18184 36.6833 5.66445 38.2091 6.57725V2.30696C38.2091 1.69553 38.4464 1.10911 38.8689 0.676543C39.2915 0.243972 39.8647 0.000636905 40.4625 0ZM38.2091 15.5672V15.2524C38.1924 14.3678 37.9441 13.5039 37.49 12.7508C37.0446 12.0038 36.4213 11.3845 35.6783 10.9509C34.9123 10.5116 34.0483 10.2824 33.1701 10.2853C32.2919 10.2882 31.4294 10.5233 30.6662 10.9677C29.9072 11.4182 29.2763 12.0635 28.8357 12.8397C28.2767 13.818 28.0507 14.9582 28.1932 16.0819C28.3356 17.2055 28.8384 18.2491 29.6229 19.0493C30.5531 20.0137 31.8198 20.5607 33.1444 20.5702C34.469 20.5797 35.7431 20.0507 36.6864 19.0997C37.1552 18.6425 37.531 18.095 37.7923 17.4888C38.0536 16.8826 38.1953 16.2296 38.2091 15.5672Z" fill="#FCF0E3"/>
<path d="M48.2569 8.18738C50.1391 6.26408 52.6899 5.18211 55.3506 5.1785C58.0114 5.1749 60.565 6.24996 62.4521 8.16816C63.4042 9.10368 64.1581 10.2294 64.6671 11.4753C65.176 12.7213 65.429 14.0609 65.4105 15.4111C65.4307 16.7621 65.1801 18.103 64.6741 19.3512C64.1681 20.5993 63.4175 21.7283 62.4686 22.6684C61.5368 23.6221 60.4303 24.3786 59.2125 24.8948C57.9946 25.4109 56.6893 25.6766 55.371 25.6766C54.0527 25.6766 52.7473 25.4109 51.5295 24.8948C50.3116 24.3786 49.2052 23.6221 48.2734 22.6684C47.324 21.7286 46.5731 20.5997 46.067 19.3515C45.561 18.1033 45.3107 16.7622 45.3314 15.4111C45.3066 14.0659 45.5537 12.73 46.0571 11.487C46.5605 10.244 47.3094 9.12068 48.2569 8.18738ZM51.8122 19.0662C52.2764 19.5442 52.8287 19.9232 53.4371 20.1814C54.0456 20.4395 54.6981 20.5717 55.3568 20.5701C56.0155 20.5685 56.6674 20.4333 57.2747 20.1723C57.8819 19.9112 58.4325 19.5295 58.8945 19.0493C59.3679 18.5764 59.7423 18.01 59.9952 17.3846C60.2481 16.7592 60.374 16.0878 60.3655 15.4111C60.3371 14.0712 59.7967 12.7959 58.8601 11.8585C57.9234 10.9212 56.665 10.3963 55.3545 10.3963C54.044 10.3963 52.7856 10.9212 51.849 11.8585C50.9123 12.7959 50.3719 14.0712 50.3436 15.4111C50.3365 16.0907 50.4638 16.7648 50.7178 17.3929C50.9718 18.021 51.3472 18.5901 51.8216 19.0662H51.8122Z" fill="#FCF0E3"/>
<path d="M87.5338 13.33C87.8544 14.8743 87.8133 16.4742 87.414 17.9992C87.0507 19.4539 86.3793 20.8091 85.4472 21.9691C84.5145 23.1056 83.3542 24.0243 82.0446 24.6629C80.5751 25.3942 78.9503 25.7388 77.3176 25.6654C75.6848 25.5919 74.0959 25.1028 72.6948 24.2424V28.2652C72.6986 28.6034 72.6354 28.939 72.509 29.2517C72.3826 29.5643 72.1956 29.8475 71.9593 30.0843C71.729 30.3336 71.4504 30.531 71.1413 30.6638C70.8321 30.7966 70.4993 30.862 70.164 30.8557H67.6944V5.14265H72.6948V6.5845C73.8976 5.83275 75.2477 5.36158 76.649 5.20457C78.0503 5.04756 79.4681 5.20857 80.8016 5.67613C82.4949 6.2235 84.0134 7.22609 85.1981 8.57906C86.3932 9.90997 87.202 11.5551 87.5338 13.33ZM74.1587 19.0661C74.8647 19.7824 75.7622 20.269 76.7382 20.4646C77.7141 20.6602 78.7248 20.556 79.643 20.1651C80.5611 19.7743 81.3456 19.1143 81.8976 18.2683C82.4496 17.4222 82.7444 16.4281 82.7449 15.411C82.7449 14.0471 82.2151 12.7391 81.272 11.7747C80.329 10.8102 79.05 10.2684 77.7163 10.2684C76.3826 10.2684 75.1036 10.8102 74.1606 11.7747C73.2175 12.7391 72.6877 14.0471 72.6877 15.411C72.6798 16.0902 72.806 16.7639 73.0587 17.392C73.3115 18.0201 73.6856 18.5895 74.1587 19.0661Z" fill="#FCF0E3"/>
<path d="M123.039 18.1217H128C128.011 19.477 127.668 20.8108 127.008 21.9859C126.36 23.1506 125.413 24.1126 124.271 24.7687C123.126 25.4389 121.83 25.7887 120.511 25.7828C119.661 25.786 118.817 25.6439 118.013 25.3622C116.548 24.8352 115.28 23.855 114.385 22.5575C113.49 21.26 113.012 19.7097 113.017 18.1217V0.0985772H115.48C115.925 0.0963485 116.363 0.217595 116.747 0.449428C117.128 0.678202 117.446 1.00339 117.67 1.39384C117.896 1.787 118.014 2.23542 118.011 2.69151V5.31808H128V10.3814H118.011V18.6456C118.137 19.2763 118.488 19.8366 118.995 20.2177C119.503 20.5989 120.13 20.7738 120.757 20.7085C121.383 20.6433 121.963 20.3425 122.385 19.8646C122.807 19.3866 123.04 18.7655 123.039 18.1217Z" fill="#FCF0E3"/>
<path d="M15.0518 5.14265V6.5845C13.5262 5.67139 11.7909 5.18875 10.0232 5.1859C8.70684 5.16469 7.40007 5.41822 6.18276 5.93098C4.96544 6.44373 3.86315 7.20496 2.94325 8.16813C1.99333 9.10449 1.24194 10.2307 0.735822 11.4767C0.229704 12.7228 -0.0203235 14.062 0.00129086 15.411C-0.0194639 16.7621 0.230898 18.1032 0.736908 19.3515C1.24292 20.5997 1.99383 21.7286 2.94325 22.6684C3.85959 23.6381 4.96065 24.4055 6.17838 24.923C7.39612 25.4404 8.70467 25.6971 10.0232 25.677C11.8741 25.6763 13.6874 25.1434 15.2562 24.139C15.4639 24.5827 15.7825 24.9624 16.1797 25.2397C16.5806 25.528 17.0596 25.6809 17.5496 25.677H20.0592V5.14265H15.0518ZM11.8185 12.3687C11.9407 11.5012 12.6174 10.9269 13.3294 11.1095C14.0414 11.2921 14.5184 12.1188 14.3962 12.9839C14.274 13.849 13.5973 14.4258 12.8853 14.2431C12.1733 14.0605 11.6963 13.2338 11.8185 12.3687ZM8.92585 9.44417C9.565 9.00201 10.4391 9.29518 10.8785 10.0978C11.318 10.9004 11.1582 11.9145 10.519 12.3567C9.87987 12.7989 9.00809 12.5081 8.56868 11.7031C8.12927 10.898 8.28905 9.90076 8.92585 9.44417ZM5.65727 10.886C6.29642 10.4439 7.17055 10.7346 7.60996 11.5397C8.04937 12.3447 7.88959 13.3564 7.25044 13.7986C6.61129 14.2407 5.73951 13.95 5.3001 13.1449C4.86069 12.3399 5.02047 11.3426 5.65727 10.8956V10.886ZM6.53375 17.0547C6.16953 17.7036 5.3048 17.8237 4.60221 17.3239C3.89962 16.8241 3.62704 15.882 3.99126 15.2452C4.35548 14.6084 5.22021 14.4762 5.9228 14.9761C6.62539 15.4759 6.90032 16.4155 6.53375 17.0644V17.0547ZM14.3774 18.7369C13.4939 19.429 12.1968 18.6312 11.1253 19.0974C10.0397 19.5227 9.64489 21.0198 8.54048 21.1472C7.43607 21.2746 6.59014 20.0466 7.60056 17.8117C8.25851 16.3074 8.07522 15.0193 9.29007 14.481C10.5284 14.0004 11.2733 15.065 12.7983 15.6826C15.0377 16.5717 15.2609 18.0568 14.3774 18.7465V18.7369Z" fill="#FCF0E3"/>
<path d="M104.535 18.2755C104.024 19.1684 103.252 19.8746 102.328 20.2941C101.406 20.7273 100.376 20.8574 99.3791 20.6665C98.4054 20.4936 97.5017 20.0353 96.7778 19.3473L109.953 13.3131L109.798 12.6162C109.781 12.4867 109.75 12.3594 109.706 12.2365C109.627 11.9434 109.526 11.6566 109.406 11.3786C109 10.4323 108.444 9.56101 107.761 8.80011C106.384 7.14103 104.505 5.99865 102.422 5.55354C100.324 5.06303 98.1253 5.29535 96.1692 6.21439C94.8633 6.80626 93.6967 7.67747 92.7478 8.76934C91.7989 9.86121 91.0898 11.1484 90.6683 12.5441C90.2594 13.9198 90.1346 15.3675 90.3018 16.7952C90.5002 18.491 91.1181 20.1071 92.097 21.4908C92.9956 22.8003 94.1829 23.875 95.5631 24.6279C96.9432 25.3809 98.4773 25.7909 100.041 25.8248C101.605 25.8587 103.155 25.5156 104.565 24.8232C105.975 24.1308 107.206 23.1086 108.158 21.8393C108.948 20.7753 109.53 19.5652 109.871 18.2755H104.535ZM96.282 12.3038C96.7772 11.6539 97.4234 11.1409 98.1619 10.8115C98.8975 10.4678 99.7044 10.3143 100.512 10.3645C101.305 10.415 102.078 10.6465 102.772 11.0422L95.281 14.4666C95.4538 13.6787 95.7957 12.9399 96.282 12.3038Z" fill="#FCF0E3"/>
</svg>
