<svg width="353" height="296" viewBox="0 0 353 296" fill="none" xmlns="http://www.w3.org/2000/svg">
<path d="M333.275 0C326.045 36.2351 278.362 108.906 145.465 109.707C81.6337 111.505 8.52078 140.319 0.709914 237.389V273.517C-0.222722 260.536 -0.185294 248.514 0.709914 237.389V0H333.275Z" fill="#36D6AD"/>
<path d="M351.614 0C325.624 104.377 277.733 118.419 223.763 122.611C166.649 125.231 158.266 124.707 122.111 131.519C14.4678 156.602 0.637588 241.391 -0.5 295M0.709914 237.389C8.52078 140.319 81.6337 111.505 145.465 109.707C278.362 108.906 326.045 36.2351 333.275 0H0.709914V237.389ZM0.709914 237.389V273.517C-0.222722 260.536 -0.185294 248.514 0.709914 237.389Z" stroke="#36D6AD"/>
</svg>
